<?xml version="1.0" encoding="UTF-8" standalone="no"?>
<svg
   width="200"
   zoomAndPan="magnify"
   viewBox="0 0 150 149.999998"
   height="200"
   preserveAspectRatio="xMidYMid meet"
   version="1.0"
   id="svg14"
   sodipodi:docname="beyondlimit-icon.svg"
   inkscape:version="1.4 (86a8ad7, 2024-10-11)"
   xmlns:inkscape="http://www.inkscape.org/namespaces/inkscape"
   xmlns:sodipodi="http://sodipodi.sourceforge.net/DTD/sodipodi-0.dtd"
   xmlns="http://www.w3.org/2000/svg"
   xmlns:svg="http://www.w3.org/2000/svg">
  <sodipodi:namedview
     id="namedview14"
     pagecolor="#ffffff"
     bordercolor="#000000"
     borderopacity="0.25"
     inkscape:showpageshadow="2"
     inkscape:pageopacity="0.0"
     inkscape:pagecheckerboard="0"
     inkscape:deskcolor="#d1d1d1"
     inkscape:zoom="2.8284272"
     inkscape:cx="95.63619"
     inkscape:cy="95.10586"
     inkscape:window-width="1440"
     inkscape:window-height="830"
     inkscape:window-x="-6"
     inkscape:window-y="893"
     inkscape:window-maximized="1"
     inkscape:current-layer="svg14" />
  <defs
     id="defs1">
    <clipPath
       id="1c77c522a8">
      <path
         d="M 0.5625 0 L 149.8125 0 L 149.8125 150 L 0.5625 150 Z M 0.5625 0 "
         clip-rule="nonzero"
         id="path1" />
    </clipPath>
  </defs>
  <path
     fill="#ba9345"
     d="m 75.367188,137.76953 c -0.06641,0 -0.136719,0 -0.207032,-0.004 -0.05469,0.004 -0.105468,0.004 -0.152344,0.004 -6.217365,0 -9.522773,-4.20018 -10.433593,-5.56641 C 63.191406,130.11719 62.5,127.70703 62.5,125.29687 c 0,-3.21093 1.21875,-6.41796 3.648438,-8.83984 l 9.039062,-9.01953 9.039062,9.01953 c 2.429688,2.42188 3.648438,5.62891 3.648438,8.83984 -0.0039,2.41407 -0.695312,4.82813 -2.078125,6.91016 -2.570464,3.08227 -5.757841,5.5625 -10.429687,5.5625 z M 100.0625,125.29687 c 0,-2.17578 -0.28125,-4.35156 -0.855469,-6.46484 C 98.121094,114.80469 96,111.00391 92.847656,107.85938 L 83.808594,98.84375 97.054688,85.628906 88.433594,77.03125 75.1875,90.242188 42.742188,57.878906 C 40.199219,55.34375 37.238281,53.480469 34.070312,52.28125 L 30.9375,51.332031 c -1.867188,-0.433593 -3.769531,-0.652343 -5.679688,-0.652343 -6.332031,0 -12.664062,2.394531 -17.476562,7.203124 -4.730469,4.707032 -7.136719,10.90625 -7.214844,17.109376 v 0.01172 c 0.085938,6.203125 2.484375,12.390625 7.214844,17.105469 4.8125,4.800781 11.144531,7.195313 17.476562,7.195313 1.910157,0 3.8125,-0.21875 5.679688,-0.652344 1.0625,-0.246094 2.105469,-0.566406 3.132812,-0.953125 3.167969,-1.195313 6.128907,-3.058594 8.667969,-5.589844 l 6.496094,-6.480469 -8.621094,-8.597656 -6.496093,6.480469 c -2.429688,2.425781 -5.648438,3.640625 -8.859376,3.632812 -0.636718,0.0078 -1.277343,-0.04297 -1.910156,-0.140625 -2.550781,-0.386718 -5,-1.550781 -6.949218,-3.496094 -2.347657,-2.339843 -3.558594,-5.410156 -3.640626,-8.503906 v -0.0078 l -0.0039,-0.0039 v -0.320313 c 0,-3.207031 1.210938,-6.410156 3.644532,-8.835937 2.210937,-1.866383 4.503906,-2.4375 6.949218,-2.855469 0.632813,-0.09766 1.269532,-0.140625 1.910156,-0.140625 3.21875,0 6.429688,1.207031 8.863282,3.636718 L 66.566412,98.84377 57.52735,107.8594 c -3.152344,3.14453 -5.273438,6.94921 -6.359375,10.97265 -0.566407,2.11328 -0.851563,4.28516 -0.851563,6.46094 0,5.20703 1.632813,10.42187 4.910156,14.78125 4.821918,6.3574 12.197177,9.82709 19.960938,9.85547 8.208244,0.1925 15.842195,-4.15101 19.972656,-9.86719 3.269532,-4.35938 4.902348,-9.56641 4.902348,-14.76563 z M 66.148438,33.527344 C 63.71875,31.105469 62.5,27.894531 62.5,24.6875 c 0.0039,-2.414062 0.695312,-4.828125 2.078125,-6.910156 0.453125,-0.679688 0.972656,-1.324219 1.574219,-1.925782 2.429687,-2.421874 5.640625,-3.632812 8.855468,-3.636718 0.06641,0 0.136719,0 0.207032,0.0039 0.05469,-0.0039 0.105468,-0.0039 0.152344,-0.0039 3.214843,0.0039 6.425781,1.214844 8.859374,3.640625 0.601563,0.601562 1.121094,1.242187 1.574219,1.925781 1.382813,2.082031 2.074219,4.496094 2.074219,6.90625 0,3.207031 -1.21875,6.417969 -3.648438,8.839844 L 75.1875,42.546875 Z m 83.664062,41.464844 -0.008,-0.01172 c -0.082,-6.203125 -2.48047,-12.390625 -7.21094,-17.105469 -4.8125,-4.800781 -11.14453,-7.195312 -17.47656,-7.195312 -1.91016,0 -3.8125,0.21875 -5.67969,0.652343 -1.0625,0.246094 -2.10547,0.566407 -3.13672,0.949219 -3.16406,1.199219 -6.125,3.0625 -8.66016,5.59375 l -6.49999,6.480469 8.62109,8.597656 6.49609,-6.480469 c 2.42969,-2.425781 5.64453,-3.640625 8.85938,-3.632812 0.63672,-0.0078 1.27734,0.04297 1.91015,0.140625 2.55078,0.386719 5,1.550781 6.94922,3.496093 2.35156,2.339844 3.5586,5.410157 3.64063,8.503907 v 0.0078 l 0.004,0.0039 V 75.3125 c 0,3.207031 -1.21093,6.410156 -3.64453,8.835938 -2.21094,1.402343 -4.50781,2.4375 -6.94922,2.855468 -0.63281,0.09766 -1.26953,0.140625 -1.91015,0.140625 -3.21485,0 -6.42969,-1.207031 -8.86328,-3.636719 L 83.808594,51.140625 92.847656,42.125 C 96,38.980469 98.121094,35.171875 99.207031,31.152344 c 0.566407,-2.113282 0.851559,-4.285156 0.851559,-6.460938 0,-5.207031 -1.632809,-10.421875 -4.906246,-14.777344 C 89.894368,3.1471515 82.648988,0.11696705 75.367188,0.0546875 H 75.1875 75.007812 C 66.777551,0.05264979 59.109758,4.3776701 55.226562,9.910156 51.949219,14.269531 50.316406,19.484375 50.3125,24.6875 c 0,2.175781 0.28125,4.351562 0.855469,6.464844 1.085937,4.027344 3.207031,7.828125 6.359375,10.972656 l 9.039062,9.015625 -13.246094,13.214844 8.621094,8.597656 13.246094,-13.210937 32.44531,32.363281 c 2.54297,2.535156 5.50391,4.398437 8.66797,5.59375 l 3.13672,0.953125 c 1.86719,0.433594 3.76953,0.652344 5.67969,0.652344 6.33203,0 12.66406,-2.394532 17.47656,-7.203126 4.73047,-4.707031 7.13672,-10.902343 7.21875,-17.109374"
     fill-opacity="1"
     fill-rule="evenodd"
     id="path11"
     sodipodi:nodetypes="scscscccccsccccccccccsccccsccccccccccccsccsccccscccscccccccccsccccccsccccccccccccsccsccccscccccccccccccccsccc"
     style="fill:none;fill-opacity:1;stroke:#ba9345;stroke-opacity:1;stroke-width:1.49999999;stroke-dasharray:none" />
</svg>
